<svg width="32" height="32" viewBox="0 0 32 32" fill="#CBC9D2" xmlns="http://www.w3.org/2000/svg">
<path d="M17.5334 17.8814H7.62642V15.0653H17.4595C18.2536 15.0653 18.906 14.9392 19.4169 14.6868C19.9339 14.4344 20.3156 14.0836 20.5618 13.6342C20.8142 13.1849 20.9373 12.6586 20.9311 12.0554C20.9373 11.4645 20.8142 10.9351 20.5618 10.4673C20.3156 9.99337 19.9401 9.62098 19.4354 9.35014C18.9368 9.07315 18.3028 8.93466 17.5334 8.93466H13.8217V25H10.4055V6.09091H17.5334C18.9983 6.09091 20.2386 6.35559 21.2543 6.88494C22.2699 7.40814 23.0393 8.11908 23.5625 9.01775C24.0919 9.91027 24.3565 10.9136 24.3565 12.0277C24.3565 13.1849 24.0888 14.2036 23.5533 15.0838C23.0178 15.9579 22.2422 16.6442 21.2266 17.1428C20.2109 17.6352 18.9799 17.8814 17.5334 17.8814ZM17.9673 19.2848V22.1009H7.62642V19.2848H17.9673Z"/>
</svg>