<svg width="20" height="20" viewBox="0 0 20 20" fill="none" xmlns="http://www.w3.org/2000/svg">
<rect width="20" height="20" rx="6" fill="#CFCED5"/>
<path fill-rule="evenodd" clip-rule="evenodd" d="M12.9846 7.56738C12.6618 7.38098 12.2489 7.4916 12.0625 7.81445L9.90005 11.56L8.4711 10.735L10.6336 6.98945C11.2756 5.87742 12.6976 5.49641 13.8096 6.13844C14.9216 6.78047 15.3027 8.20242 14.6606 9.31445L12.4106 13.2116C11.3544 15.041 9.01505 15.6679 7.18558 14.6116C5.35611 13.5554 4.72928 11.216 5.78553 9.38656L8.19803 5.20799L9.62697 6.03299L7.21447 10.2116C6.61386 11.2518 6.97029 12.5821 8.01058 13.1827C9.05086 13.7833 10.3811 13.4268 10.9817 12.3866L13.2317 8.48945C13.4181 8.1666 13.3075 7.75377 12.9846 7.56738Z" fill="white"/>
</svg>