<svg width="20" height="20" viewBox="0 0 20 20" fill="none" xmlns="http://www.w3.org/2000/svg">
<rect width="20" height="20" rx="6" fill="#CFCED5"/>
<path fill-rule="evenodd" clip-rule="evenodd" d="M5.50861 4.46075L15.5294 14.4815L14.4716 15.5392L12.852 13.9196C11.9529 14.3948 10.985 14.6396 10 14.6396C7.55779 14.6396 5.22033 13.1347 3.77721 10.3446L3.599 10L3.77721 9.65545C4.35228 8.54362 5.06937 7.63585 5.87851 6.94608L4.4509 5.51846L5.50861 4.46075ZM6.94287 8.01043C6.33738 8.50482 5.77643 9.16435 5.29723 10C6.53361 12.1561 8.31414 13.1396 9.99999 13.1396C10.5723 13.1396 11.1555 13.0263 11.7246 12.7922L11.0901 12.1577C10.7626 12.3235 10.3922 12.4169 9.99999 12.4169C8.66513 12.4169 7.58301 11.3348 7.58301 9.99995C7.58301 9.60773 7.67643 9.23734 7.84224 8.9098L6.94287 8.01043ZM9.83447 10.902C9.46073 10.8339 9.16605 10.5392 9.09791 10.1655L9.83447 10.902Z" fill="white"/>
<path d="M14.7027 10.0046C13.3239 7.59957 11.2694 6.65052 9.4029 6.90582L8.65981 7.00745L8.45654 5.52129L9.19962 5.41966C11.9074 5.04929 14.6187 6.55889 16.2228 9.66013L16.401 10.0047L16.2228 10.3492C15.9185 10.9376 15.5749 11.4687 15.1985 11.941L14.731 12.5275L13.5581 11.5925L14.0255 11.006C14.2648 10.7058 14.4918 10.3722 14.7027 10.0046Z" fill="white"/>
</svg>
