<svg width="20" height="20" viewBox="0 0 20 20" fill="none" xmlns="http://www.w3.org/2000/svg">
<rect width="20" height="20" rx="6" fill="#CFCED5"/>
<path fill-rule="evenodd" clip-rule="evenodd" d="M5.29723 10C6.53361 12.1561 8.31414 13.1396 9.99999 13.1396C11.6858 13.1396 13.4664 12.156 14.7028 9.99995C13.4664 7.84388 11.6858 6.86034 10 6.86035C8.31415 6.86036 6.53361 7.84394 5.29723 10ZM9.99999 5.36035C12.4422 5.36033 14.7797 6.8653 16.2228 9.65539L16.401 9.99995L16.2228 10.3445C14.7797 13.1346 12.4422 14.6396 10 14.6396C7.55779 14.6396 5.22033 13.1347 3.77721 10.3446L3.599 10L3.77721 9.65545C5.22032 6.86536 7.55778 5.36037 9.99999 5.36035ZM9.99999 9.08297C9.49356 9.08297 9.08301 9.49352 9.08301 9.99995C9.08301 10.5064 9.49356 10.9169 9.99999 10.9169C10.5064 10.9169 10.917 10.5064 10.917 9.99995C10.917 9.49352 10.5064 9.08297 9.99999 9.08297ZM7.58301 9.99995C7.58301 8.66509 8.66513 7.58297 9.99999 7.58297C11.3349 7.58297 12.417 8.66509 12.417 9.99995C12.417 11.3348 11.3349 12.4169 9.99999 12.4169C8.66513 12.4169 7.58301 11.3348 7.58301 9.99995Z" fill="white"/>
</svg>