<svg width="134" height="32" viewBox="0 0 134 32" fill="#D6F04E" xmlns="http://www.w3.org/2000/svg">
<path d="M5.37328 0H0L3.41937 24.6957H8.79265H14.1659L17.5853 0L21.0047 24.6957H26.378H31.5363L34.8189 0H29.6605L26.378 24.6957L22.9586 0H17.5853H12.212L8.79265 24.6957L5.37328 0Z"/>
<path fill-rule="evenodd" clip-rule="evenodd" d="M34.1329 13.6705C34.1155 13.953 34.1155 14.2875 34.1155 14.9565C34.1155 15.6255 34.1155 15.96 34.1329 16.2426C34.4242 20.9702 38.2651 24.7404 43.0813 25.0264C43.3691 25.0435 43.7099 25.0435 44.3914 25.0435H46.3487C47.0303 25.0435 47.3711 25.0435 47.6589 25.0264C52.4751 24.7404 56.3159 20.9702 56.6073 16.2426C56.6247 15.96 56.6247 15.6255 56.6247 14.9565C56.6247 14.2875 56.6247 13.953 56.6073 13.6705C56.3159 8.94283 52.4751 5.17263 47.6589 4.88666C47.3711 4.86957 47.0303 4.86957 46.3487 4.86957H44.3914C43.7099 4.86957 43.3691 4.86957 43.0813 4.88666C38.2651 5.17263 34.4242 8.94283 34.1329 13.6705ZM39.2543 14.8622C39.254 14.8804 39.2538 14.8999 39.2536 14.9233L39.2535 14.9577L39.2535 14.9861L39.2535 15.0766C39.2535 15.128 39.2535 15.1676 39.2535 15.1999C39.2536 15.2377 39.2539 15.2656 39.2543 15.291C39.306 18.1352 41.6425 20.4287 44.54 20.4795C44.588 20.4803 44.6448 20.4803 44.7584 20.4803H45.9817C46.0953 20.4803 46.1521 20.4803 46.2002 20.4795C49.0977 20.4287 51.4341 18.1352 51.4858 15.291C51.4867 15.2438 51.4867 15.1881 51.4867 15.0766C51.4867 14.9651 51.4867 14.9094 51.4858 14.8622C51.4341 12.018 49.0977 9.7245 46.2002 9.67372C46.1521 9.67288 46.0953 9.67288 45.9817 9.67288L44.6633 9.67291L44.6243 9.67298L44.6 9.67309L44.5758 9.67325L44.5575 9.67346L44.54 9.67372C41.6425 9.7245 39.306 12.018 39.2543 14.8622Z"/>
<path fill-rule="evenodd" clip-rule="evenodd" d="M57.6798 14.9565C57.6798 14.2875 57.6798 13.953 57.6969 13.6705C57.9837 8.94283 61.7645 5.17263 66.5055 4.88666C66.7888 4.86957 67.1243 4.86957 67.7952 4.86957H69.7219C70.3928 4.86957 70.7282 4.86957 71.0116 4.88666C75.7525 5.17263 79.5334 8.94283 79.8201 13.6705C79.8373 13.953 79.8373 14.2875 79.8373 14.9565C79.8373 15.6255 79.8373 15.96 79.8201 16.2426C79.5334 20.9702 75.7525 24.7404 71.0116 25.0264C70.7282 25.0435 70.3928 25.0435 69.7219 25.0435H67.7952C67.1243 25.0435 66.7888 25.0435 66.5055 25.0264C61.7645 24.7404 57.9837 20.9702 57.6969 16.2426C57.6798 15.96 57.6798 15.6255 57.6798 14.9565ZM62.7377 14.9255L62.7379 14.8932L62.7381 14.8786L62.7383 14.8622C62.7892 12.018 65.0892 9.7245 67.9414 9.67372C67.9887 9.67288 68.0446 9.67288 68.1564 9.67288H69.3606C69.4724 9.67288 69.5284 9.67288 69.5756 9.67372C72.4279 9.7245 74.7278 12.018 74.7787 14.8622C74.7796 14.9094 74.7796 14.9651 74.7796 15.0766V15.1347L74.7795 15.1996C74.7794 15.2375 74.7792 15.2655 74.7787 15.291C74.7278 18.1352 72.4279 20.4287 69.5756 20.4795C69.5284 20.4803 69.4724 20.4803 69.3606 20.4803H68.1564C68.0821 20.4803 68.0325 20.4803 67.9937 20.4801L67.9665 20.4799L67.9414 20.4795C65.0892 20.4287 62.7892 18.1352 62.7383 15.291C62.7375 15.2438 62.7375 15.1881 62.7375 15.0766C62.7375 15.0095 62.7375 14.9625 62.7377 14.9255Z"/>
<path fill-rule="evenodd" clip-rule="evenodd" d="M98.5847 0H103.402V24.805H98.5847V22.1817C97.5727 23.7864 96.1113 24.9077 94.1291 25.0265C94.0892 25.0289 94.0571 25.0309 94.0296 25.0327C93.9915 25.0351 93.9621 25.037 93.9327 25.0385C93.8324 25.0435 93.7318 25.0435 93.2862 25.0435H91.3595C90.6886 25.0435 90.3531 25.0435 90.0698 25.0265C84.6159 24.6998 81.548 20.9983 81.2612 16.3032C81.2441 16.0226 81.2441 15.6905 81.2441 15.0261C81.2441 14.3617 81.2441 14.0295 81.2612 13.7489C81.548 9.05386 84.8567 5.33793 90.0698 5.02564C90.3531 5.0087 90.6886 5.0087 91.3595 5.0087H93.2862C95.5599 5.25885 97.2593 6.26716 98.5847 7.52021V0ZM86.302 14.9878C86.3021 14.9668 86.3023 14.9491 86.3026 14.9324C86.3535 12.1078 88.6535 9.83012 91.5058 9.7797C91.5329 9.77923 91.5629 9.77906 91.6047 9.77894L92.9249 9.77888C93.0368 9.77888 93.0926 9.77888 93.1399 9.7797C95.9921 9.83012 98.2922 12.1078 98.3431 14.9324L98.3435 14.9607L98.3436 14.9772L98.3437 14.989C98.3439 15.0267 98.3439 15.0748 98.3439 15.1453C98.3439 15.256 98.3439 15.3114 98.3431 15.3582C98.2922 18.1828 95.9921 20.4605 93.1399 20.5109C93.1119 20.5114 93.0809 20.5117 93.0369 20.5117C93.0068 20.5118 92.9705 20.5118 92.9249 20.5118L91.6002 20.5117C91.5607 20.5116 91.5319 20.5114 91.5058 20.5109C88.6535 20.4605 86.3535 18.1828 86.3026 15.3582C86.3023 15.3406 86.3021 15.3218 86.302 15.2994L86.3019 15.274L86.3018 15.2395L86.3018 15.1453C86.3018 15.0741 86.3018 15.0257 86.302 14.9878Z"/>
<path d="M105.512 0H110.436V24.6957H105.512V0Z"/>
<path d="M134 5.21739H128.986L120.987 32H126.001L134 5.21739Z"/>
<path d="M111.491 5.21739H116.629L122.745 24.6957H117.607L111.491 5.21739Z"/>
</svg>