<svg width="16" height="16" viewBox="0 0 16 16" fill="#202020" xmlns="http://www.w3.org/2000/svg">
<path fill-rule="evenodd" clip-rule="evenodd" d="M8 2.5062C4.96586 2.5062 2.5062 4.96586 2.5062 8C2.5062 11.0341 4.96586 13.4938 8 13.4938C11.0341 13.4938 13.4938 11.0341 13.4938 8C13.4938 4.96586 11.0341 2.5062 8 2.5062ZM1 8C1 4.13401 4.13401 1 8 1C11.866 1 15 4.13401 15 8C15 11.866 11.866 15 8 15C4.13401 15 1 11.866 1 8ZM8 4.15856L11.3089 7.46748L10.2439 8.53252L8.7531 7.04174V11.4705H7.2469V7.04174L5.75612 8.53252L4.69108 7.46748L8 4.15856Z" />
</svg>