<svg width="24" height="24" viewBox="0 0 24 24" fill="#202020" xmlns="http://www.w3.org/2000/svg">
<path fill-rule="evenodd" clip-rule="evenodd" d="M11 4.06189C7.05369 4.55399 4 7.92038 4 12C4 16.4183 7.58172 20 12 20C15.1267 20 17.8365 18.2058 19.1522 15.5885L11 12.7072V4.06189ZM13 4.06189V11.2928L19.8186 13.7028C19.9374 13.1547 20 12.5851 20 12C20 7.92038 16.9463 4.55399 13 4.06189ZM2 12C2 6.47715 6.47715 2 12 2C17.5228 2 22 6.47715 22 12C22 13.167 21.7997 14.2894 21.4307 15.3332C20.0584 19.2159 16.3556 22 12 22C6.47715 22 2 17.5228 2 12Z"/>
</svg>
