<svg width="20" height="20" viewBox="0 0 20 20" fill="#202020" xmlns="http://www.w3.org/2000/svg">
<path fill-rule="evenodd" clip-rule="evenodd" d="M10 3.25C6.27208 3.25 3.25 6.27208 3.25 10C3.25 13.7279 6.27208 16.75 10 16.75C13.7279 16.75 16.75 13.7279 16.75 10C16.75 6.27208 13.7279 3.25 10 3.25ZM1.75 10C1.75 5.44365 5.44365 1.75 10 1.75C14.5563 1.75 18.25 5.44365 18.25 10C18.25 14.5563 14.5563 18.25 10 18.25C5.44365 18.25 1.75 14.5563 1.75 10ZM7.5 6.43934L10 8.93934L12.5 6.43934L13.5607 7.5L11.0607 10L13.5607 12.5L12.5 13.5607L10 11.0607L7.5 13.5607L6.43934 12.5L8.93934 10L6.43934 7.5L7.5 6.43934Z"/>
</svg>
