<svg width="16" height="16" viewBox="0 0 16 16" fill="#202020" xmlns="http://www.w3.org/2000/svg">
<path fill-rule="evenodd" clip-rule="evenodd" d="M4.89014 3.08334H1.08325V4.58334H2.46341L3.13008 14.9167H12.8698L13.5364 4.58334H14.9166V3.08334H11.1097C10.5715 1.90368 9.38222 1.08334 7.99993 1.08334C6.61765 1.08334 5.42839 1.90368 4.89014 3.08334ZM6.70882 3.08334H9.29105C8.95018 2.77268 8.49688 2.58334 7.99993 2.58334C7.50299 2.58334 7.04968 2.77268 6.70882 3.08334ZM12.0333 4.58334H3.96653L4.53642 13.4167H11.4634L12.0333 4.58334ZM7.24992 6.41668V11.5833H5.74992V6.41668H7.24992ZM10.2499 6.41668V11.5833H8.74992V6.41668H10.2499Z"/>
</svg>
