<svg width="20" height="20" viewBox="0 0 20 20" fill="#202020" xmlns="http://www.w3.org/2000/svg">
<path fill-rule="evenodd" clip-rule="evenodd" d="M4.38181 5.44249L1.96965 3.03033L3.03031 1.96967L6.05523 4.99459C6.06247 5.00154 6.06959 5.00865 6.07658 5.01593L14.983 13.9224C14.9902 13.9293 14.9973 13.9364 15.0043 13.9437L18.0303 16.9697L16.9697 18.0303L14.35 15.4106C12.1472 16.6577 9.67062 16.9152 7.34378 16.1591C4.83588 15.3442 2.56817 13.3755 1.00048 10.3446L0.822266 10L1.00048 9.65548C1.9182 7.88117 3.07511 6.47109 4.38181 5.44249ZM5.45124 6.51192C4.3571 7.33861 3.34894 8.49609 2.51712 10C3.92042 12.5375 5.82434 14.0882 7.80733 14.7326C9.59279 15.3127 11.4916 15.1757 13.2414 14.3021L11.7059 12.7666C11.2101 13.0729 10.6254 13.25 9.99998 13.25C8.20506 13.25 6.74998 11.7949 6.74998 10C6.74998 9.37458 6.92712 8.78984 7.23336 8.29403L5.45124 6.51192ZM8.3511 9.41177C8.28557 9.59553 8.24998 9.79348 8.24998 10C8.24998 10.9665 9.03348 11.75 9.99998 11.75C10.2065 11.75 10.4044 11.7144 10.5882 11.6489L8.3511 9.41177ZM17.4829 9.99996C15.3552 6.15172 12.0827 4.56695 9.05368 4.98124L8.3106 5.08288L8.10733 3.59672L8.85041 3.49508C12.7228 2.96543 16.651 5.11499 18.9995 9.65544L19.1777 10L18.9995 10.3446C18.5537 11.2064 18.0516 11.9822 17.5032 12.6703L17.0357 13.2568L15.8627 12.3218L16.3302 11.7353C16.7417 11.219 17.1283 10.6409 17.4829 9.99996Z"/>
</svg>
