<svg width="20" height="20" viewBox="0 0 20 20" fill="#202020" xmlns="http://www.w3.org/2000/svg">
<path fill-rule="evenodd" clip-rule="evenodd" d="M2.5171 10.0001C4.42774 13.4555 7.26297 15.0834 9.99998 15.0834C12.737 15.0834 15.5722 13.4554 17.4829 10C15.5722 6.54457 12.737 4.9167 9.99999 4.91672C7.26298 4.91674 4.42774 6.54465 2.5171 10.0001ZM9.99998 3.41672C13.4954 3.41669 16.8861 5.56955 18.9995 9.65545L19.1777 10L18.9995 10.3446C16.8861 14.4305 13.4954 16.5834 9.99999 16.5834C6.50453 16.5834 3.11382 14.4306 1.00048 10.3447L0.822266 10.0001L1.00048 9.65554C3.11382 5.56964 6.50452 3.41674 9.99998 3.41672ZM9.99998 8.25001C9.03348 8.25001 8.24998 9.03351 8.24998 10C8.24998 10.9665 9.03348 11.75 9.99998 11.75C10.9665 11.75 11.75 10.9665 11.75 10C11.75 9.03351 10.9665 8.25001 9.99998 8.25001ZM6.74998 10C6.74998 8.20508 8.20506 6.75001 9.99998 6.75001C11.7949 6.75001 13.25 8.20508 13.25 10C13.25 11.7949 11.7949 13.25 9.99998 13.25C8.20506 13.25 6.74998 11.7949 6.74998 10Z"/>
</svg>
