<svg width="16" height="16" viewBox="0 0 16 16" fill="#202020" xmlns="http://www.w3.org/2000/svg">
<path fill-rule="evenodd" clip-rule="evenodd" d="M8.68661 3.91667C9.01294 2.76219 10.074 1.91667 11.3332 1.91667C12.8524 1.91667 14.0832 3.14745 14.0832 4.66667C14.0832 6.18588 12.8524 7.41667 11.3332 7.41667C10.074 7.41667 9.01294 6.57114 8.68661 5.41667H1.9165V3.91667H8.68661ZM11.3332 3.41667C10.6424 3.41667 10.0832 3.97588 10.0832 4.66667C10.0832 5.35745 10.6424 5.91667 11.3332 5.91667C12.024 5.91667 12.5832 5.35745 12.5832 4.66667C12.5832 3.97588 12.024 3.41667 11.3332 3.41667ZM3.35328 10.5833C3.6796 9.42886 4.74065 8.58333 5.99984 8.58333C7.25903 8.58333 8.32007 9.42886 8.64639 10.5833H14.0832V12.0833H8.6464C8.32007 13.2378 7.25903 14.0833 5.99984 14.0833C4.74065 14.0833 3.6796 13.2378 3.35328 12.0833H1.9165V10.5833H3.35328ZM5.99984 10.0833C5.30905 10.0833 4.74984 10.6425 4.74984 11.3333C4.74984 12.0241 5.30905 12.5833 5.99984 12.5833C6.69062 12.5833 7.24984 12.0241 7.24984 11.3333C7.24984 10.6425 6.69062 10.0833 5.99984 10.0833Z" />
</svg>
