<svg width="20" height="21" viewBox="0 0 20 21" fill="#202020" xmlns="http://www.w3.org/2000/svg">
<path d="M10.75 8.91667H8.20832V10.4167H9.24999L9.24999 14.7917L10.75 14.7917L10.75 8.91667Z" />
<path d="M9.18335 6.35001H10.8167V7.98334H9.18335V6.35001Z" />
<path fill-rule="evenodd" clip-rule="evenodd" d="M9.99999 2.04167C5.32858 2.04167 1.54166 5.8286 1.54166 10.5C1.54166 15.1714 5.32858 18.9583 9.99999 18.9583C14.6714 18.9583 18.4583 15.1714 18.4583 10.5C18.4583 5.8286 14.6714 2.04167 9.99999 2.04167ZM3.04166 10.5C3.04166 6.65702 6.15701 3.54167 9.99999 3.54167C13.843 3.54167 16.9583 6.65702 16.9583 10.5C16.9583 14.343 13.843 17.4583 9.99999 17.4583C6.15701 17.4583 3.04166 14.343 3.04166 10.5Z" />
</svg>
