<svg width="16" height="16" viewBox="0 0 16 16" fill="#202020" xmlns="http://www.w3.org/2000/svg">
<path fill-rule="evenodd" clip-rule="evenodd" d="M1.08325 5.83333C1.08325 3.57817 2.91142 1.75 5.16659 1.75H10.8333C13.0884 1.75 14.9166 3.57817 14.9166 5.83333V10.1667C14.9166 12.4218 13.0884 14.25 10.8333 14.25H1.08325V5.83333ZM5.16659 3.25C3.73985 3.25 2.58325 4.4066 2.58325 5.83333V12.75H10.8333C12.26 12.75 13.4166 11.5934 13.4166 10.1667V5.83333C13.4166 4.4066 12.26 3.25 10.8333 3.25H5.16659ZM5.08325 5.75H10.9166V7.25H5.08325V5.75ZM5.08325 8.75H8.91659V10.25H5.08325V8.75Z" />
</svg>
