<svg width="16" height="16" viewBox="0 0 16 16" fill="#202020" xmlns="http://www.w3.org/2000/svg">
<path fill-rule="evenodd" clip-rule="evenodd" d="M2 2H7.33333V7.33333H2V2ZM3.33333 3.33333V6H6V3.33333H3.33333Z"/>
<path fill-rule="evenodd" clip-rule="evenodd" d="M2 8.66667H7.33333V14H2V8.66667ZM3.33333 10V12.6667H6V10H3.33333Z"/>
<path fill-rule="evenodd" clip-rule="evenodd" d="M8.66667 2H14V7.33333H8.66667V2ZM10 3.33333V6H12.6667V3.33333H10Z"/>
<path d="M8.66667 8.66667H10V10H11.3333V11.3333H8.66667V8.66667Z"/>
<path d="M8.66667 12.6667H10V14H8.66667V12.6667Z"/>
<path d="M11.3333 14H12.6667V12.6667H14V11.3333H11.3333V14Z"/>
<path d="M11.3333 8.66667H14V10H11.3333V8.66667Z"/>
</svg>
