<svg width="16" height="16" viewBox="0 0 16 16" fill="#202020" xmlns="http://www.w3.org/2000/svg">
<path fill-rule="evenodd" clip-rule="evenodd" d="M4.08336 1.91667V3.42775C4.3764 3.16876 4.68325 2.93624 5.00981 2.73581C5.87867 2.20251 6.85331 1.91667 8.0189 1.91667C11.3786 1.91667 14.1022 4.64027 14.1022 8.00001C14.1022 11.3597 11.3786 14.0833 8.0189 14.0833C5.36901 14.0833 3.11667 12.3895 2.28192 10.0277L2.03198 9.32059L3.44624 8.82072L3.69618 9.52785C4.32573 11.309 6.02446 12.5833 8.0189 12.5833C10.5502 12.5833 12.6022 10.5313 12.6022 8.00001C12.6022 5.4687 10.5502 3.41667 8.0189 3.41667C7.12054 3.41667 6.41907 3.63083 5.79448 4.0142C5.53777 4.17177 5.28879 4.36112 5.0411 4.58334H6.75002V6.08334H2.58336V1.91667H4.08336Z" />
</svg>