<svg width="20" height="20" viewBox="0 0 20 20" fill="#202020" xmlns="http://www.w3.org/2000/svg">
<path fill-rule="evenodd" clip-rule="evenodd" d="M9.16667 3.875C6.24416 3.875 3.875 6.24416 3.875 9.16667C3.875 12.0892 6.24416 14.4583 9.16667 14.4583C10.6281 14.4583 11.95 13.8669 12.9084 12.9084C13.8669 11.95 14.4583 10.6281 14.4583 9.16667C14.4583 6.24416 12.0892 3.875 9.16667 3.875ZM2.375 9.16667C2.375 5.41573 5.41573 2.375 9.16667 2.375C12.9176 2.375 15.9583 5.41573 15.9583 9.16667C15.9583 10.7716 15.4009 12.2474 14.4702 13.4095L17.7273 16.6667L16.6667 17.7273L13.4095 14.4702C12.2474 15.4009 10.7716 15.9583 9.16667 15.9583C5.41573 15.9583 2.375 12.9176 2.375 9.16667Z"/>
</svg>