<svg width="24" height="24" viewBox="0 0 24 24" fill="#202020" xmlns="http://www.w3.org/2000/svg">
<path fill-rule="evenodd" clip-rule="evenodd" d="M12 1.85266L21 6.9151V17.0848L12 22.1472L3 17.0851L3 6.91507L12 1.85266ZM5 8.08478V15.9154L12 19.8525L19 15.9151V8.0848L12 4.14735L5 8.08478ZM12 9.99999C10.8955 9.99999 10 10.8954 10 12C10 13.1046 10.8955 14 12 14C13.1046 14 14 13.1046 14 12C14 10.8954 13.1046 9.99999 12 9.99999ZM8.00003 12C8.00003 9.79085 9.79089 7.99999 12 7.99999C14.2092 7.99999 16 9.79085 16 12C16 14.2091 14.2092 16 12 16C9.79089 16 8.00003 14.2091 8.00003 12Z"/>
</svg>
