<svg width="16" height="16" viewBox="0 0 16 16" fill="#202020" xmlns="http://www.w3.org/2000/svg">
<path fill-rule="evenodd" clip-rule="evenodd" d="M8.75031 1.0834L8.74998 4.91673L7.24998 4.9166L7.25031 1.08327L8.75031 1.0834ZM3.63979 2.5787L6.35012 5.28952L5.28937 6.35008L2.57903 3.63927L3.63979 2.5787ZM13.4215 3.63984L10.7109 6.35041L9.65029 5.28975L12.3609 2.57918L13.4215 3.63984ZM1.08337 7.25047H4.91671V8.75047H1.08337V7.25047ZM11.0834 7.25047H14.9167V8.75047H11.0834V7.25047ZM10.7108 9.64977L13.4213 12.3603L12.3607 13.421L9.6501 10.7104L10.7108 9.64977ZM6.35045 10.7109L3.63988 13.4215L2.57922 12.3608L5.28979 9.65025L6.35045 10.7109ZM8.75024 11.0833V14.9167H7.25024V11.0833H8.75024Z" />
</svg>