<svg width="41" height="41" viewBox="0 0 41 41" fill="none" xmlns="http://www.w3.org/2000/svg">
<rect x="0.5" y="0.5" width="40" height="40" rx="20" fill="#202020"/>
<path fill-rule="evenodd" clip-rule="evenodd" d="M9.30808 19.8115C15.1385 17.2713 19.0263 15.5966 20.9716 14.7875C26.5258 12.4773 27.68 12.076 28.4322 12.0628C28.5976 12.0598 28.9676 12.1009 29.2072 12.2953C29.4095 12.4595 29.4652 12.6813 29.4918 12.8369C29.5185 12.9926 29.5517 13.3472 29.5253 13.6242C29.2243 16.7867 27.9219 24.4612 27.2594 28.0032C26.979 29.502 26.427 30.0045 25.8926 30.0537C24.7311 30.1606 23.8492 29.2861 22.7243 28.5488C20.964 27.3949 19.9696 26.6766 18.2609 25.5506C16.2863 24.2494 17.5664 23.5342 18.6917 22.3654C18.9862 22.0595 24.1035 17.4049 24.2026 16.9826C24.215 16.9298 24.2265 16.733 24.1095 16.629C23.9926 16.5251 23.82 16.5606 23.6954 16.5889C23.5189 16.629 20.7069 18.4876 15.2593 22.1649C14.4611 22.713 13.7382 22.98 13.0904 22.966C12.3763 22.9506 11.0027 22.5623 9.98149 22.2303C8.72898 21.8232 7.73352 21.6079 7.8202 20.9165C7.86535 20.5563 8.36131 20.188 9.30808 19.8115Z" fill="white"/>
</svg>
