<svg width="20" height="21" viewBox="0 0 20 21" fill="#202020" xmlns="http://www.w3.org/2000/svg">
<path fill-rule="evenodd" clip-rule="evenodd" d="M10 3.75C6.27208 3.75 3.25 6.77208 3.25 10.5C3.25 14.2279 6.27208 17.25 10 17.25C13.7279 17.25 16.75 14.2279 16.75 10.5C16.75 6.77208 13.7279 3.75 10 3.75ZM1.75 10.5C1.75 5.94365 5.44365 2.25 10 2.25C14.5563 2.25 18.25 5.94365 18.25 10.5C18.25 15.0563 14.5563 18.75 10 18.75C5.44365 18.75 1.75 15.0563 1.75 10.5ZM10.75 6.41667V10.1893L13.144 12.5833L12.0833 13.644L9.25 10.8107V6.41667H10.75Z"/>
</svg>