<svg width="24" height="24" viewBox="0 0 24 24" fill="#202020" xmlns="http://www.w3.org/2000/svg">
<path fill-rule="evenodd" clip-rule="evenodd" d="M12 4C7.58172 4 4 7.58172 4 12C4 14.064 4.78076 15.9449 6.06519 17.3647C7.55946 15.8943 9.61204 15 12 15C14.388 15 16.4405 15.8943 17.9348 17.3647C19.2192 15.9449 20 14.064 20 12C20 7.58172 16.4183 4 12 4ZM16.4116 18.6749C15.2978 17.6362 13.7911 17 12 17C10.2089 17 8.70224 17.6362 7.58839 18.6749C8.85303 19.5126 10.3688 20 12 20C13.6312 20 15.147 19.5126 16.4116 18.6749ZM2 12C2 6.47715 6.47715 2 12 2C17.5228 2 22 6.47715 22 12C22 15.0236 20.6569 17.7345 18.5382 19.5667C16.7856 21.0822 14.4987 22 12 22C9.50126 22 7.21436 21.0822 5.46183 19.5667C3.34312 17.7345 2 15.0236 2 12ZM12 8C10.8954 8 10 8.89543 10 10C10 11.1046 10.8954 12 12 12C13.1046 12 14 11.1046 14 10C14 8.89543 13.1046 8 12 8ZM8 10C8 7.79086 9.79086 6 12 6C14.2091 6 16 7.79086 16 10C16 12.2091 14.2091 14 12 14C9.79086 14 8 12.2091 8 10Z" />
</svg>
