<svg width="20" height="20" viewBox="0 0 20 20" fill="#202020" xmlns="http://www.w3.org/2000/svg">
<path d="M12.9167 13C13.4229 13 13.8333 12.5896 13.8333 12.0833C13.8333 11.5771 13.4229 11.1667 12.9167 11.1667C12.4104 11.1667 12 11.5771 12 12.0833C12 12.5896 12.4104 13 12.9167 13Z"/>
<path fill-rule="evenodd" clip-rule="evenodd" d="M2.375 5.41667C2.375 3.7368 3.7368 2.375 5.41667 2.375H14.2917V6.54167H17.625V17.625H5.625C3.83007 17.625 2.375 16.1699 2.375 14.375V5.41667ZM3.875 7.78905V14.375C3.875 15.3415 4.6585 16.125 5.625 16.125H16.125V8.04167H5C4.5974 8.04167 4.21597 7.95103 3.875 7.78905ZM3.875 5.41667C3.875 6.03799 4.37868 6.54167 5 6.54167H12.7917V3.875H5.41667C4.56523 3.875 3.875 4.56523 3.875 5.41667Z"/>
</svg>