<svg width="16" height="16" viewBox="0 0 16 16" fill="none" xmlns="http://www.w3.org/2000/svg">
<rect width="16" height="16" rx="8" fill="#FF8C00"/>
<path d="M11.1639 10.1236C11.1879 10.3085 11.1338 10.3886 11.0736 10.3886C11.0135 10.3886 10.9292 10.3146 10.839 10.1668C10.7487 10.0189 10.7126 9.85257 10.7608 9.76632C10.7908 9.71088 10.851 9.68623 10.9352 9.71704C11.0857 9.77248 11.1458 10.0128 11.1639 10.1236ZM10.3095 10.5303C10.496 10.6904 10.5502 10.8814 10.4539 11.0108C10.3998 11.0847 10.3095 11.1217 10.2072 11.1217C10.1049 11.1217 9.99663 11.0847 9.92443 11.017C9.75596 10.8691 9.70783 10.6227 9.81613 10.4871C9.85824 10.4317 9.93045 10.4009 10.0087 10.4009C10.1109 10.407 10.2193 10.4502 10.3095 10.5303ZM10.0026 12.0705C10.7969 12.0705 11.6573 12.3477 12.6079 13.2164C12.7042 13.3026 12.8305 13.1979 12.7463 13.087C11.8077 11.8733 10.9413 11.6454 10.0809 11.4482C9.02793 11.2079 8.48041 10.6042 8.10135 9.93266C8.02313 9.79713 7.99305 9.82177 7.98703 9.99427C7.98102 10.2037 7.99305 10.481 8.04118 10.752C7.99907 10.752 7.95695 10.752 7.91483 10.752C6.40463 10.752 5.17721 9.49525 5.17721 7.94889C5.17721 6.40253 6.40463 5.14572 7.91483 5.14572C9.42504 5.14572 10.6525 6.40253 10.6525 7.94889C10.6525 8.05978 10.6464 8.17068 10.6344 8.27541C10.4359 8.23844 10.0387 8.23228 9.76198 8.25693C9.65969 8.26309 9.67173 8.31853 9.74994 8.33086C10.6525 8.4972 11.2782 9.07015 11.4166 10.1175C11.4226 10.1421 11.4527 10.1483 11.4647 10.1298C11.8378 9.49525 12.0483 8.74979 12.0483 7.95505C12.0483 5.61394 10.1952 3.71642 7.90882 3.71642C5.62245 3.71642 3.76929 5.60778 3.76929 7.94889C3.76929 10.29 5.62245 12.1875 7.90882 12.1875C8.51651 12.1937 9.11818 12.0705 10.0026 12.0705Z" fill="white"/>
</svg>