<svg width="18" height="18" viewBox="0 0 18 18" fill="none" xmlns="http://www.w3.org/2000/svg">
<rect width="18" height="18" rx="9" fill="white"/>
<path d="M4.5 5.87358L5.89003 8.35817V9.87371L4.50163 12.3534L4.5 5.87358Z" fill="#5B57A2"/>
<path d="M9.83712 7.454L11.1396 6.65568L13.8053 6.65319L9.83712 9.08412V7.454Z" fill="#D90751"/>
<path d="M9.82982 5.85897L9.83718 9.14848L8.4439 8.29239V3.37514L9.82982 5.85897Z" fill="#FAB718"/>
<path d="M13.8053 6.65319L11.1396 6.65568L9.82982 5.85897L8.4439 3.37514L13.8053 6.65319Z" fill="#ED6F26"/>
<path d="M9.83718 12.3672V10.7713L8.4439 9.93142L8.44466 14.8535L9.83718 12.3672Z" fill="#63B22F"/>
<path d="M11.1364 11.5761L5.89003 8.35817L4.5 5.87358L13.7997 11.5729L11.1364 11.5761Z" fill="#1487C9"/>
<path d="M8.44466 14.8535L9.83718 12.3672L11.1364 11.5761L13.7997 11.5729L8.44466 14.8535Z" fill="#017F36"/>
<path d="M4.50163 12.3534L8.45541 9.93153L7.12621 9.11599L5.89003 9.87371L4.50163 12.3534Z" fill="#984995"/>
</svg>