<svg width="80" height="80" viewBox="0 0 80 80" fill="none" xmlns="http://www.w3.org/2000/svg">
<g filter="url(#filter0_dd_646_20176)">
<rect x="32" y="28" width="16" height="16" rx="8" fill="white"/>
<path d="M35.3473 32.7592L36.7373 35.2438V36.7594L35.3489 39.2391L35.3473 32.7592Z" fill="#5B57A2"/>
<path d="M40.6844 34.3397L41.9869 33.5413L44.6526 33.5389L40.6844 35.9698V34.3397Z" fill="#D90751"/>
<path d="M40.6771 32.7446L40.6845 36.0341L39.2912 35.178V30.2608L40.6771 32.7446Z" fill="#FAB718"/>
<path d="M44.6526 33.5389L41.9869 33.5413L40.6771 32.7446L39.2912 30.2608L44.6526 33.5389Z" fill="#ED6F26"/>
<path d="M40.6845 39.2529V37.6569L39.2912 36.8171L39.292 41.7392L40.6845 39.2529Z" fill="#63B22F"/>
<path d="M41.9837 38.4618L36.7373 35.2438L35.3473 32.7592L44.647 38.4585L41.9837 38.4618Z" fill="#1487C9"/>
<path d="M39.292 41.7392L40.6845 39.2529L41.9837 38.4618L44.647 38.4585L39.292 41.7392Z" fill="#017F36"/>
<path d="M35.3489 39.2391L39.3027 36.8172L37.9735 36.0016L36.7373 36.7594L35.3489 39.2391Z" fill="#984995"/>
</g>
<defs>
<filter id="filter0_dd_646_20176" x="0" y="0" width="80" height="80" filterUnits="userSpaceOnUse" color-interpolation-filters="sRGB">
<feFlood flood-opacity="0" result="BackgroundImageFix"/>
<feColorMatrix in="SourceAlpha" type="matrix" values="0 0 0 0 0 0 0 0 0 0 0 0 0 0 0 0 0 0 127 0" result="hardAlpha"/>
<feOffset/>
<feGaussianBlur stdDeviation="2"/>
<feComposite in2="hardAlpha" operator="out"/>
<feColorMatrix type="matrix" values="0 0 0 0 0 0 0 0 0 0 0 0 0 0 0 0 0 0 0.04 0"/>
<feBlend mode="normal" in2="BackgroundImageFix" result="effect1_dropShadow_646_20176"/>
<feColorMatrix in="SourceAlpha" type="matrix" values="0 0 0 0 0 0 0 0 0 0 0 0 0 0 0 0 0 0 127 0" result="hardAlpha"/>
<feOffset dy="4"/>
<feGaussianBlur stdDeviation="16"/>
<feComposite in2="hardAlpha" operator="out"/>
<feColorMatrix type="matrix" values="0 0 0 0 0 0 0 0 0 0 0 0 0 0 0 0 0 0 0.16 0"/>
<feBlend mode="normal" in2="effect1_dropShadow_646_20176" result="effect2_dropShadow_646_20176"/>
<feBlend mode="normal" in="SourceGraphic" in2="effect2_dropShadow_646_20176" result="shape"/>
</filter>
</defs>
</svg>