<svg width="16" height="16" viewBox="0 0 16 16" fill="none" xmlns="http://www.w3.org/2000/svg">
<rect width="16" height="16" rx="8" fill="#9C00FF"/>
<path d="M9.43917 4.41421C7.47567 4.41421 5.91378 6.02554 5.91378 8C5.91378 9.99715 7.49798 11.5858 9.43917 11.5858C11.3804 11.5858 12.9646 9.97445 12.9646 8C12.9646 6.02554 11.3804 4.41421 9.43917 4.41421ZM9.43917 9.339C8.72517 9.339 8.12273 8.72623 8.12273 8C8.12273 7.27376 8.72517 6.661 9.43917 6.661C10.1532 6.661 10.7556 7.27376 10.7556 8C10.7333 8.72623 10.1532 9.339 9.43917 9.339Z" fill="white"/>
<path d="M5.8913 5.45818V10.678H4.64179L3.03528 5.45818H5.8913Z" fill="white"/>
</svg>